<?xml version="1.0" encoding="UTF-8" standalone="no"?>
<!-- Created with Inkscape (http://www.inkscape.org/) -->

<svg
   width="3840"
   height="2160"
   viewBox="0 0 1016 571.5"
   version="1.1"
   id="svg5"
   inkscape:version="1.1 (c68e22c387, 2021-05-23)"
   sodipodi:docname="gamePad.svg"
   xmlns:inkscape="http://www.inkscape.org/namespaces/inkscape"
   xmlns:sodipodi="http://sodipodi.sourceforge.net/DTD/sodipodi-0.dtd"
   xmlns="http://www.w3.org/2000/svg"
   xmlns:svg="http://www.w3.org/2000/svg">
  <sodipodi:namedview
     id="namedview7"
     pagecolor="#505050"
     bordercolor="#ffffff"
     borderopacity="1"
     inkscape:pageshadow="0"
     inkscape:pageopacity="0"
     inkscape:pagecheckerboard="1"
     inkscape:document-units="px"
     showgrid="false"
     inkscape:zoom="1.3677083"
     inkscape:cx="2005.179"
     inkscape:cy="1202.3762"
     inkscape:window-width="1920"
     inkscape:window-height="1009"
     inkscape:window-x="-8"
     inkscape:window-y="-8"
     inkscape:window-maximized="1"
     inkscape:current-layer="layer1" />
  <defs
     id="defs2">
    <clipPath
       id="a">
      <path
         d="m0 294.39h439.45v-294.39h-439.45v294.39z"
         id="path824" />
    </clipPath>
    <filter
       inkscape:collect="always"
       style="color-interpolation-filters:sRGB"
       id="filter1293"
       x="-0.0045137136"
       y="-0.0097797122"
       width="1.0090274"
       height="1.0195594">
      <feGaussianBlur
         inkscape:collect="always"
         stdDeviation="0.053146483"
         id="feGaussianBlur1295" />
    </filter>
    <filter
       inkscape:collect="always"
       style="color-interpolation-filters:sRGB"
       id="filter1293-6"
       x="-0.0045137232"
       y="-0.0097797329"
       width="1.0090274"
       height="1.0195595">
      <feGaussianBlur
         inkscape:collect="always"
         stdDeviation="0.053146483"
         id="feGaussianBlur1295-5" />
    </filter>
    <filter
       inkscape:collect="always"
       style="color-interpolation-filters:sRGB"
       id="filter1293-8"
       x="-0.0045137232"
       y="-0.0097797329"
       width="1.0090274"
       height="1.0195595">
      <feGaussianBlur
         inkscape:collect="always"
         stdDeviation="0.053146483"
         id="feGaussianBlur1295-59" />
    </filter>
  </defs>
  <g
     inkscape:label="Warstwa 1"
     inkscape:groupmode="layer"
     id="layer1">
    <g
       clip-path="url(#a)"
       id="g889"
       transform="matrix(0.57387716,0,0,-0.57387716,396.39326,356.1296)">
      <g
         transform="translate(291.61,74.1)"
         id="g831">
        <path
           d="m 0,0 c 12.566,-0.004 24.723,-4.474 34.3,-12.61 0.226,-0.192 0.443,-0.396 0.649,-0.61 L 84.1,-64.479 c 0.15,-0.151 0.299,-0.301 0.46,-0.451 15.29,-14 39.54,-11.75 51.669,5.11 30.55,42.46 -4.5,145.09 -43.609,235.94 -0.845,1.916 -2.417,3.417 -4.37,4.17 l -2.521,1 c -2.458,0.96 -4.272,3.089 -4.83,5.67 -1.569,7.229 -6.358,13.343 -13,16.6 -40.389,19.86 -65.7,21.27 -79.109,8.13 -1.479,-1.499 -3.485,-2.36 -5.591,-2.4 h -110.17 c -2.127,0.035 -4.154,0.908 -5.64,2.43 -13.4,13.14 -38.71,11.73 -79.1,-8.13 -6.642,-3.257 -11.431,-9.371 -13,-16.6 -0.542,-2.585 -2.345,-4.726 -4.8,-5.7 l -2.52,-1 c -1.963,-0.765 -3.537,-2.285 -4.37,-4.22 -39.1,-90.78 -74.15,-193.43 -43.6,-235.89 12.13,-16.89 36.39,-19.09 51.669,-5.11 0.161,0.14 0.31,0.29 0.461,0.451 l 49.15,51.259 c 0.206,0.214 0.423,0.418 0.65,0.61 9.576,8.136 21.733,12.606 34.299,12.61 h 143.77 z"
           fill="#1f1f21"
           id="path829" />
      </g>
      <g
         transform="translate(278.88,161.81)"
         id="g835">
        <path
           d="m 0,0 c 13.481,0 24.41,-10.929 24.41,-24.41 0,-13.482 -10.929,-24.41 -24.41,-24.41 -13.481,0 -24.41,10.928 -24.41,24.41 C -24.41,-10.929 -13.481,0 0,0"
           fill="#383838"
           id="path833" />
      </g>
      <g
         transform="translate(278.88,112.99)"
         id="g839">
        <path
           d="m 0,0 c -13.481,0 -24.41,10.929 -24.41,24.41 0,13.482 10.929,24.41 24.41,24.41 13.481,0 24.41,-10.928 24.41,-24.41 V 24.4 C 24.404,10.923 13.478,0 0,0 M 0,51.92 C -15.193,51.92 -27.51,39.604 -27.51,24.41 -27.51,9.217 -15.193,-3.1 0,-3.1 15.189,-3.1 27.505,9.211 27.51,24.4 27.516,39.594 15.203,51.915 0.01,51.92 Z"
           fill="#191919"
           id="path837" />
      </g>
      <g
         transform="translate(166.26,170.55)"
         id="g843">
        <path
           d="m 0,0 c 19.452,0 35.22,-15.769 35.22,-35.22 0,-19.452 -15.768,-35.22 -35.22,-35.22 -19.451,0 -35.22,15.768 -35.22,35.22 C -35.22,-15.769 -19.451,0 0,0"
           fill="#383838"
           id="path841" />
      </g>
      <g
         transform="translate(166.26,100.11)"
         id="g847">
        <path
           d="M 0,0 C -19.451,0 -35.22,15.769 -35.22,35.221 -35.22,54.672 -19.451,70.44 0,70.44 19.452,70.44 35.22,54.672 35.22,35.221 35.22,15.769 19.452,0 0,0 m 0,74.521 c -21.705,0 -39.3,-17.596 -39.3,-39.3 0,-21.705 17.595,-39.301 39.3,-39.301 21.705,0 39.3,17.596 39.3,39.301 0,21.704 -17.595,39.3 -39.3,39.3"
           fill="#191919"
           id="path845" />
      </g>
      <g
         transform="translate(188.51,145.71)"
         id="g851">
        <path
           d="m 0,0 h -11.88 v 11.87 c 0,3.314 -2.686,6 -6,6 h -8.79 c -3.313,0 -6,-2.686 -6,-6 V 0 h -11.84 c -3.313,0 -6,-2.687 -6,-6 v -8.79 c 0,-3.314 2.687,-6 6,-6 h 11.87 v -11.87 c 0,-3.314 2.686,-6 6,-6 h 8.79 c 3.314,0 6,2.686 6,6 v 11.899 H 0.02 c 3.314,0 6,2.687 6,6 v 8.79 C 6.004,-2.66 3.31,0.011 0,0"
           fill="#898989"
           id="path849" />
      </g>
      <g
         transform="translate(189.68,213.72)"
         id="g855">
        <path
           d="m 0,0 c 5.225,0 9.46,-4.235 9.46,-9.46 0,-5.225 -4.235,-9.46 -9.46,-9.46 -5.225,0 -9.46,4.235 -9.46,9.46 C -9.46,-4.235 -5.225,0 0,0"
           fill="#383838"
           id="path853" />
      </g>
      <g
         transform="translate(219.72,273.37)"
         id="g859">
        <path
           d="m 0,0 c 11.151,0 20.19,-9.04 20.19,-20.19 0,-11.151 -9.039,-20.19 -20.19,-20.19 -11.151,0 -20.19,9.039 -20.19,20.19 C -20.19,-9.04 -11.151,0 0,0"
           fill="#ffffff"
           id="path857" />
      </g>
      <g
         transform="translate(254.48,213.72)"
         id="g863">
        <path
           d="m 0,0 c 5.225,0 9.46,-4.235 9.46,-9.46 0,-5.225 -4.235,-9.46 -9.46,-9.46 -5.225,0 -9.461,4.235 -9.461,9.46 C -9.461,-4.235 -5.225,0 0,0"
           fill="#383838"
           id="path861" />
      </g>
      <g
         transform="translate(111.34,230.94)"
         id="g867">
        <path
           d="m 0,0 c 14.735,0 26.68,-11.945 26.68,-26.68 0,-14.735 -11.945,-26.68 -26.68,-26.68 -14.735,0 -26.68,11.945 -26.68,26.68 C -26.68,-11.945 -14.735,0 0,0"
           fill="#191919"
           id="path865" />
      </g>
      <g
         transform="translate(111.34,228.31)"
         id="g871">
        <path
           d="M 0,0 C 13.283,0 24.05,-10.768 24.05,-24.05 24.05,-37.333 13.283,-48.1 0,-48.1 c -13.282,0 -24.05,10.767 -24.05,24.05 C -24.05,-10.768 -13.282,0 0,0"
           fill="#383838"
           id="path869" />
      </g>
      <g
         transform="translate(306.39,219)"
         id="g875">
        <path
           d="m 0,0 c 8.141,0 14.74,-6.599 14.74,-14.74 0,-8.14 -6.599,-14.74 -14.74,-14.74 -8.141,0 -14.739,6.6 -14.739,14.74 C -14.739,-6.599 -8.141,0 0,0"
           fill="#16b7ef"
           id="path873" />
      </g>
      <g
         transform="translate(335.87,189.37)"
         id="g879">
        <path
           d="m 0,0 c 8.141,0 14.74,-6.599 14.74,-14.74 0,-8.141 -6.599,-14.74 -14.74,-14.74 -8.141,0 -14.74,6.599 -14.74,14.74 C -14.74,-6.599 -8.141,0 0,0"
           fill="#00e530"
           id="path877" />
      </g>
      <g
         transform="translate(335.87,248.63)"
         id="g883">
        <path
           d="m 0,0 c 8.141,0 14.74,-6.6 14.74,-14.74 0,-8.141 -6.599,-14.74 -14.74,-14.74 -8.141,0 -14.74,6.599 -14.74,14.74 C -14.74,-6.6 -8.141,0 0,0"
           fill="#ffef22"
           id="path881" />
      </g>
      <g
         transform="translate(365.35,219)"
         id="g887">
        <path
           d="m 0,0 c 8.141,0 14.74,-6.599 14.74,-14.74 0,-8.14 -6.599,-14.74 -14.74,-14.74 -8.141,0 -14.739,6.6 -14.739,14.74 C -14.739,-6.599 -8.141,0 0,0"
           fill="#ea3b3b"
           id="path885" />
      </g>
    </g>
    <path
       style="fill:none;stroke:#ffffff;stroke-width:1.32291667;stroke-linecap:round;stroke-linejoin:round;stroke-opacity:1;filter:url(#filter1293);stroke-miterlimit:4;stroke-dasharray:none"
       d="M 460.05802,239.47349 397.62845,158.79526 H 285.2552"
       id="path994" />
    <path
       style="fill:none;stroke:#ffffff;stroke-width:1.32292;stroke-linecap:round;stroke-linejoin:round;stroke-miterlimit:4;stroke-dasharray:none;stroke-opacity:1;filter:url(#filter1293-6)"
       d="M 460.69834,194.65225 398.26877,113.97402 H 285.89552"
       id="path994-3" />
    <path
       style="fill:none;stroke:#ffffff;stroke-width:1.32291667;stroke-linecap:round;stroke-linejoin:round;stroke-opacity:1;stroke-miterlimit:4;stroke-dasharray:none"
       d="m 588.43888,255.80123 70.11324,51.54443 h 108.53142"
       id="path1363" />
    <path
       style="fill:none;stroke:#ffffff;stroke-width:1.32291667;stroke-linecap:round;stroke-linejoin:round;stroke-opacity:1;stroke-miterlimit:4;stroke-dasharray:none"
       d="M 725.46381,116.85538 H 587.15827 v 78.11702 l 75.55582,-30.73456 117.49568,0"
       id="path1530" />
    <path
       style="fill:none;stroke:#ffffff;stroke-width:1.32291667;stroke-linecap:round;stroke-linejoin:round;stroke-opacity:1;filter:url(#filter1293);stroke-miterlimit:4;stroke-dasharray:none"
       d="M 460.05802,239.47349 397.62845,158.79526 H 285.2552"
       id="path1875" />
    <path
       style="fill:none;stroke:#ffffff;stroke-width:1.32292;stroke-linecap:round;stroke-linejoin:round;stroke-miterlimit:4;stroke-dasharray:none;stroke-opacity:1;filter:url(#filter1293-8)"
       d="M 659.19241,389.3045 596.76284,308.62627 H 484.38959"
       id="path1875-6"
       transform="rotate(180,607.96814,333.75818)" />
    <path
       style="fill:none;stroke:#ffffff;stroke-width:1.32292;stroke-linecap:round;stroke-linejoin:round;stroke-miterlimit:4;stroke-dasharray:none;stroke-opacity:1"
       d="m 542.82042,239.47752 v 116.59381 l -73.31535,0"
       id="path899"
       sodipodi:nodetypes="ccc" />
  </g>
</svg>
